<svg width="500" height="454" viewBox="0 0 500 454" fill="none" xmlns="http://www.w3.org/2000/svg">
<path d="M395.6 356.2C395.6 356.2 416.4 382.3 417.1 381.6C417.8 380.9 428.2 371.3 428.2 371.3L419.4 361.3L434.3 367.7L468.1 334.5C468.1 334.5 466.1 329.9 454.5 332.9C442.9 335.9 425.1 341.6 425.1 341.6L411.8 327L395.6 356.2Z" fill="#000005"/>
<path d="M395.1 356.5C399.3 361.8 403.6 367 407.9 372.2C410.3 375.1 412.7 378 415.3 380.7C415.7 381.2 416.4 382.1 417.1 382.1C418 382.2 419.2 380.6 419.8 380.1C422.8 377.3 425.9 374.4 428.9 371.6C429 371.5 429.1 371.3 429 371.1L420.2 361.1L419.2 361.7L434.1 368.1C434.4 368.2 434.7 368.2 435 367.9L446.4 356.7L464.6 338.7L468.8 334.6C468.9 334.5 469 334.3 468.9 334.1C468.3 333.2 467.5 332.5 466.5 332.1C463.4 330.7 459.7 331.2 456.5 331.9C452.2 332.8 447.9 334.2 443.6 335.4C439.6 336.6 435.6 337.8 431.6 339C429.5 339.7 427.3 340.3 425.2 341L425.9 341.1L412.5 326.5C412.1 326.3 411.7 326.4 411.4 326.7L397 352.5L395 356.1C394.7 356.7 395.9 356.8 396.1 356.3L410.3 330.6L412.3 327L411.2 327.2L424.6 341.8C424.8 342 425.1 341.9 425.3 341.9C430.3 340.3 435.4 338.7 440.4 337.3C444.5 336.1 448.6 334.9 452.8 333.8C456.5 332.8 460.6 331.7 464.4 332.7C465.5 333 467 333.6 467.5 334.7L467.6 334.3L456.2 345.5L438 363.5L433.8 367.6L434.7 367.4L419.8 361C419.5 360.9 418.4 361.1 418.9 361.6L427.7 371.6L427.8 371.1L420.4 378L418.2 380C417.8 380.4 417.1 380.8 416.8 381.3C416.5 381.8 417.4 381.2 417.4 381.3C417.4 381.4 417.2 381.2 417.1 381.1C416.8 380.8 416.5 380.5 416.2 380.2C410.7 374.4 405.9 368.1 400.9 361.9C399.3 360 397.8 358 396.2 356.1C395.9 355.6 394.7 356 395.1 356.5Z" fill="#000005"/>
<path d="M160 321.7C160 321.7 126.8 318 126.8 318.9C126.8 319.8 126.3 334 126.3 334L139.6 334.9L124.5 340.9L124.1 388.3C124.1 388.3 128.8 390.1 134.9 379.8C141 369.5 149.5 352.9 149.5 352.9L169.3 353.8L160 321.7Z" fill="#000005"/>
<path d="M160.3 321.199C153.6 320.499 147 319.799 140.4 319.099C136.6 318.699 132.8 318.299 129 318.199C128.2 318.099 127.4 318.099 126.6 318.399C125.8 318.899 126.2 320.799 126.2 321.599C126.1 325.699 125.9 329.899 125.8 333.999C125.8 334.299 126 334.399 126.3 334.499L139.6 335.399L139.5 334.599L124.4 340.599C124.3 340.599 124 340.799 124 340.999L123.8 356.999L123.6 382.599V388.399C123.6 388.599 123.7 388.699 123.8 388.799C124.9 389.099 126.1 388.999 127.1 388.599C130.3 387.399 132.7 384.499 134.5 381.699C136.9 377.999 139 373.899 141.2 369.999C143.2 366.299 145.2 362.599 147.2 358.899C148.2 356.999 149.2 355.099 150.2 353.199L149.6 353.499L169.4 354.399C169.6 354.399 170.2 354.199 170.1 353.799L162 325.599L160.9 321.599C160.7 320.999 159.5 321.299 159.7 321.799L167.7 349.999L168.8 353.999L169.5 353.399L149.7 352.499C149.4 352.499 149.2 352.599 149 352.799C146.7 357.299 144.3 361.799 141.8 366.299C139.8 369.899 137.8 373.499 135.8 377.099C133.8 380.599 131.7 384.499 128.3 386.799C127.5 387.399 126.5 387.799 125.5 387.899C125.3 387.899 124.9 387.799 124.7 387.899C124.5 387.999 124.4 387.799 124.5 387.899L124.7 388.299L124.9 372.299L125.1 346.699V340.899L124.7 341.299L139.8 335.299C140.4 335.099 140.2 334.499 139.7 334.499L126.4 333.599L126.9 334.099C127 330.699 127.1 327.299 127.2 323.999C127.2 322.999 127.3 321.999 127.3 321.099C127.4 320.499 127.4 319.899 127.4 319.199V318.999L127.1 319.299C127.1 319.299 127.2 319.299 127.3 319.299C127.7 319.299 128.2 319.299 128.6 319.299C136.5 319.499 144.5 320.599 152.4 321.399C154.9 321.699 157.3 321.899 159.8 322.199C160.4 322.199 161.1 321.299 160.3 321.199Z" fill="#000005"/>
<path d="M329.9 310.1L396.7 366.6L425.9 333.5L346.4 259L329.9 310.1Z" fill="white"/>
<path d="M328.7 312.099L335.3 317.699L351.3 331.199L370.6 347.499L387.3 361.599C390 363.899 392.6 366.299 395.4 368.399L395.5 368.499C396.3 369.199 397.5 369.099 398.3 368.399L408.2 357.199L423.9 339.399L427.5 335.299C428.5 334.199 428.4 332.499 427.3 331.499C427.2 331.499 427.2 331.399 427.1 331.399L419.2 323.999L400.2 306.199L377.3 284.699L357.5 266.099L350.9 259.999C349.9 258.999 348.9 257.999 347.8 257.099L347.7 256.999C346.8 256.299 345.4 256.399 344.7 257.299C344.5 257.499 344.4 257.799 344.3 257.999L338.7 275.299L329.8 302.799L327.8 309.099C326.9 311.899 331.2 313.899 332.2 310.899L337.8 293.599L346.7 266.099L348.7 259.799L345.3 260.899L353.2 268.299L372.2 286.099L395.1 307.599L414.9 326.199L421.5 332.299C422.5 333.299 423.5 334.299 424.6 335.199L424.7 335.299L424.3 331.399L414.4 342.599L398.7 360.299L395.1 364.399L397.9 364.299L391.2 358.699L375.2 345.199L356 329.199L339.3 315.099C336.6 312.799 334 310.399 331.2 308.299L331.1 308.199C330.2 307.499 328.8 307.599 328.1 308.499C328.1 308.599 328 308.599 328 308.699C327.3 309.899 327.7 311.299 328.7 312.099Z" fill="#000005"/>
<path d="M270.8 318.6C270.8 318.6 271.6 353.2 252.2 360C232.8 366.8 160.4 359.3 160.4 359.3L147.5 318.6H270.8Z" fill="white"/>
<path d="M268.3 319.1V319.2C268.3 319.6 268.3 318.9 268.3 319.1C268.3 319.6 268.3 320.1 268.3 320.5C268.3 322.1 268.2 323.7 268.1 325.3C267.7 330.2 266.9 335 265.6 339.8C264.2 344.8 261.9 349.9 258.4 353.7C256.8 355.5 254.8 357 252.5 358C252 358.2 251.4 358.4 250.9 358.6L250.3 358.8L250.6 358.7L250.1 358.8C249.2 359 248.3 359.2 247.5 359.4C245.3 359.8 243.1 360.1 241 360.3L240.1 360.4H239.7C240.2 360.4 239.8 360.4 239.7 360.4L237.8 360.5C236.5 360.6 235.1 360.7 233.8 360.7C227.9 361 222 361 216.1 360.9C204.2 360.7 192.4 360 180.6 359.1C176.2 358.8 171.9 358.4 167.5 358C165.4 357.8 163.2 357.5 161.1 357.4H160.8L162.9 358.8L158.5 345.1L151.5 323.1L149.9 318.1L147.1 320.4H255.2C260.2 320.4 265.2 320.5 270.2 320.4H270.4C271.5 320.4 273 319.8 273.2 318.6C273.4 317.4 272.1 316.7 271.1 316.7H162.9C157.9 316.7 152.9 316.6 147.9 316.7H147.7C146.7 316.7 144.5 317.6 144.9 319L149.3 332.7L156.3 354.7L157.9 359.7C158.2 360.6 159.1 361.2 160 361.1C165.6 361.7 171.1 362.1 176.7 362.6C188.6 363.5 200.5 364.2 212.5 364.5C223.7 364.8 235.2 365 246.3 363.2C251 362.4 255.6 361.1 259.4 358.1C263.8 354.4 267.1 349.5 269 344.1C271.9 336.1 273.3 327.6 273.2 319V318.1C273.2 316.9 271.3 316.6 270.4 316.7C269.2 316.9 268.3 317.9 268.3 319.1Z" fill="#000005"/>
<path d="M322 336.3L39.3999 335.7L109.7 184.6L392.3 185.2L322 336.3Z" fill="#68BA7F"/>
<path d="M322 335.9H314.4H293.8L263.5 335.8L226.4 335.7L185.7 335.6L144.8 335.5L106.5 335.4L74.2998 335.3H50.9998C47.2998 335.3 43.5998 335.2 39.9998 335.3H39.4998L41.9998 335.7L48.9998 320.7L65.6998 284.5L85.9998 241L103.6 203.2L109.4 190.7L111.2 186.9C111.6 186.2 111.9 185.5 112.2 184.8C112.2 184.7 112.3 184.6 112.3 184.6L109.8 185H117.4L138 185.1L168.3 185.2L205.4 185.3L246.1 185.4L287 185.5L325.3 185.6L357.5 185.7L380.8 185.8C384.5 185.8 388.2 185.9 391.8 185.8H392.3L389.8 185.4L382.8 200.4L366 236.4L345.7 280L328.1 317.8L322.3 330.3L320.5 334C320.1 334.6 319.7 335.3 319.5 336.1C319.5 336.2 319.4 336.3 319.4 336.4C319.4 336.3 323.9 337.4 324.4 336.3L331.4 321.3L348.2 285.2L368.5 241.7L386.1 203.9L391.9 191.4L393.7 187.6C394.1 187 394.5 186.3 394.7 185.5C394.7 185.4 394.8 185.3 394.8 185.2C394.9 184.9 392.3 184.8 392.3 184.8H384.7H364.1L333.8 184.7L296.7 184.6L256 184.5L215.1 184.4L176.8 184.3L144.6 184.2L121.3 184.1C117.6 184.1 114 184.1 110.3 184.1H109.8C109.3 184.1 107.6 184 107.3 184.5L100.3 199.5L83.4998 235.5L63.1998 279L45.5998 316.8L39.7998 329.3L37.9998 333.1C37.5998 333.7 37.1998 334.4 36.9998 335.2C36.9998 335.3 36.8998 335.4 36.8998 335.5C36.7998 335.8 39.3998 335.9 39.3998 335.9H46.9998H67.5998L97.8998 336L135.1 336.1L175.8 336.2L216.7 336.3L255 336.4L287.2 336.5H310.5C314.2 336.5 317.9 336.5 321.5 336.5H322C322.3 336.5 324.5 336.5 324.5 336.1C324.5 335.7 322.1 335.9 322 335.9Z" fill="#68BA7F"/>
<path d="M114.6 191L124.7 199.4L148.9 219.5L178.1 243.7L203.3 264.6C207.4 268 211.4 271.6 215.6 274.8L215.8 274.9C216.2 275.3 216.9 275.4 217.4 275.2L221.9 273L234.2 267L252.3 258L274.4 247.2L298.6 235.3L323.1 223.3L345.9 212.1L365.1 202.7L379 195.9C381.1 194.8 383.5 193.9 385.6 192.7C385.7 192.6 385.8 192.6 385.9 192.6C387.3 191.9 384.5 187.8 382.8 188.7L378.3 190.9L366 196.9L348 205.8L325.9 216.6L301.6 228.6L277.1 240.6L254.3 251.8L235.1 261.2L221.2 268C218.9 269 216.8 270 214.6 271.2C214.5 271.3 214.4 271.3 214.3 271.3L215.9 271.6L205.8 263.2L181.6 243.2L152.3 219L127.1 198.1C123 194.7 119 191.1 114.8 187.9L114.6 187.8C113.9 187.2 112.8 187.1 112.7 188.2C112.6 189.3 113.9 190.3 114.6 191Z" fill="#000005"/>
<path d="M63.0998 323.799L74.9998 316.2L103.4 298.2L138 276.2L167.7 257.299L177.5 251.1C179.1 250.1 180.7 249.2 182.2 248.1L182.4 248C184 247 181.4 242.7 179.9 243.7L168 251.299L139.6 269.299L105 291.299L75.2998 310.2L65.4998 316.399C63.9998 317.399 62.2998 318.299 60.7998 319.399C60.6998 319.399 60.6998 319.5 60.5998 319.5C58.9998 320.6 61.5998 324.899 63.0998 323.799Z" fill="#000005"/>
<path d="M258.5 247.999L263.9 255.399L276.8 273.099L292.4 294.499L306 313.099C308.2 316.099 310.3 319.199 312.6 322.099L312.7 322.199C313.4 323.099 314.4 323.899 315.5 324.299C316.3 324.599 316.5 324.399 316 323.599L310.6 316.199L297.7 298.499L282 277.199L268.4 258.599C266.2 255.599 264.1 252.499 261.8 249.599L261.7 249.499C261 248.599 260 247.799 258.9 247.399C258.1 246.999 257.9 247.199 258.5 247.999Z" fill="#000005"/>
<path d="M236.2 165.6C236.2 165.6 211.8 184.2 210.2 193.2C207 211.3 255.1 251.9 264 260C272.9 268.1 288.2 277.3 287.8 268.6C287.8 268.6 298.6 275.2 297.2 266.2C297.2 266.2 308.3 269.3 302.3 261.2C296.5 253.5 283.3 241.7 283.3 241.7C283.3 241.7 285.6 239.3 291 237.5C296.4 235.7 298.8 231.1 291.9 228.6C285 226.1 280.5 226.5 266 228.7L243.5 195.5L257.2 185.2L236.2 165.6Z" fill="white"/>
<path d="M234.6 163.7C227.2 169.2 220.3 175.4 214.1 182.3C211.2 185.6 208.1 189.4 208.2 194C208.3 198.6 210.5 203 212.7 206.9C218.8 217.7 227.7 227.1 236.3 235.8C243.9 243.5 252 250.8 260.1 258.1C264 261.8 268.2 265.2 272.6 268.3C275.6 270.4 278.9 272.2 282.4 273.5C284.2 274.1 287.2 275 288.7 273.2C289.4 272.3 289.7 271.2 289.5 270L288.3 270.5C290.1 271.6 292.1 272.5 294.2 272.9C295.4 273.3 296.8 273.1 297.9 272.3C299.2 271.2 299.2 269.1 298.9 267.5L298.1 268.2C299.6 268.6 301.2 268.8 302.7 268.8C303.6 268.8 304.5 268.5 305.2 268C306.2 267 305.7 265.4 305.3 264.3C303.8 260.5 300.4 257.3 297.7 254.3C295 251.3 291.9 248.3 288.9 245.4C287.2 243.8 285.4 242.1 283.6 240.5L284.8 243.6C286.9 241.4 289.9 240.3 292.7 239.3C295.6 238.2 298.9 235.8 297.5 232.2C296 228.2 291.8 226.6 288 225.6C285.2 224.9 282.4 224.6 279.5 224.8C274.5 225.1 269.5 225.7 264.6 226.6L267.1 228.5L247.4 199.4L244.6 195.3L245 197.4L258.7 187.1C259.6 186.4 257.9 184.4 257.5 184L239.1 166.8L236.5 164.4C236.1 164 234.9 163 234.4 163.9C233.9 164.8 235.3 166.3 235.8 166.8L254.2 184L256.8 186.4L255.6 183.3L241.9 193.5C241.3 193.9 242 195.2 242.3 195.6L262 224.7L264.8 228.8C265.3 229.5 266.3 230.9 267.3 230.7C271.4 230.1 275.5 229.4 279.7 229.1C282.3 228.8 285 228.9 287.6 229.2C288.4 229.3 295.1 230.9 294.8 231.6C294.8 231.6 294.2 230.9 294.3 230.9C294.3 231.1 294.3 231.3 294.3 231.5C294.2 232.1 293.9 232.7 293.4 233.1C292.2 234.3 290.8 235.1 289.2 235.6C286.6 236.5 283.7 237.8 281.7 239.8C280.9 240.6 282.4 242.4 282.9 242.9C286.8 246.4 290.6 250 294.2 253.7C296.8 256.2 299.2 259 301.4 261.9C301.7 262.3 302 262.8 302.2 263.3C302.1 263.1 302.2 263.7 302.2 263.5C302.2 263.7 302.3 263.6 302.1 263.9C301.7 264.4 301.1 264.7 300.5 264.7C299 264.8 297.5 264.7 296.1 264.2C295.6 264.1 295.2 264.3 295.3 264.9C295.5 266.1 295.7 267.8 294.5 268.5C293.6 269 292.6 269 291.7 268.7C290.1 268.3 288.6 267.7 287.2 266.8C286.6 266.5 285.9 266.5 286 267.3C286.2 273.5 276.5 267.7 274.4 266.4C269.9 263.5 265.7 260.2 261.9 256.6C254.4 249.9 247 243.2 239.8 236.2C235.4 231.8 231.2 227.5 227.2 223C223.5 218.8 220 214.4 217 209.7C216.7 209.2 216.3 208.6 216 208.1L215.5 207.3L215.3 206.9C215.1 206.5 215.3 206.9 215.2 206.7C214.6 205.7 214.1 204.7 213.6 203.6C213.2 202.8 212.9 201.9 212.6 201C212.5 200.6 212.3 200.1 212.2 199.7C212.1 199.3 212 198.8 212 198.5C211.7 196.9 211.8 195.3 212.3 193.8C213.1 191.7 214.3 189.8 215.7 188.1C219.4 183.6 223.5 179.5 227.9 175.7C230.9 173 234.1 170.4 237.3 167.9L237.8 167.5C238.9 166.6 235.8 162.7 234.6 163.7Z" fill="#000005"/>
<path d="M272.7 256.6C275.5 260 278.5 263.3 281.8 266.2C283.1 267.4 284.4 268.4 285.8 269.4C286.6 269.9 288.1 269.6 288.9 269.3C289.1 269.2 291.1 268.6 290.5 268.1C288 266.3 285.6 264.3 283.5 262.1C281.7 260.3 280 258.4 278.3 256.5C278 256.1 277.7 255.7 277.3 255.4C276.9 255.1 276.3 255.2 276.1 255.2C275.5 255.2 274.8 255.3 274.2 255.5C273.9 255.5 272.2 255.9 272.7 256.6Z" fill="#000005"/>
<path d="M279.1 250.9C283.2 255.6 287.6 260 292.2 264.2C293.9 265.8 295.8 267.2 297.7 268.5C298.4 269 299.4 268.9 299.9 268.2C300 268.1 300.1 267.9 300.2 267.7C300.4 266.4 299.8 265.2 298.7 264.6L297.7 263.9C297.5 263.7 297.8 264 297.8 264L297.6 263.8L297 263.3C296.2 262.7 295.5 262 294.7 261.4C293.2 260.1 291.7 258.7 290.2 257.3C287.7 254.9 285.4 252.4 283.1 249.9L282.5 249.2C282.2 248.9 281.9 248.5 282.4 249.1L282 248.7C281.3 247.9 280.1 247 279.1 247.8C278.1 248.6 278.5 250.2 279.1 250.9Z" fill="#000005"/>
<path d="M257.1 185.2L232.9 161C232.9 161 282.3 131.9 305.7 144.2C329.1 156.5 323.4 185.4 323.4 185.4" fill="white"/>
<path d="M259.1 184.9L237.8 163.6L234.8 160.6L234.6 162.3C238.6 159.9 242.8 157.8 247 155.8C255.9 151.4 265.1 147.9 274.6 145.2C279.6 143.8 284.7 143 289.8 142.6C292.1 142.5 294.3 142.5 296.6 142.8C298.5 143 300.4 143.4 302.2 144.1C302.7 144.3 303.2 144.5 303.6 144.7C303.9 144.8 303.6 144.7 303.5 144.7L303.9 144.9L304.7 145.3C306 146 307.2 146.7 308.4 147.6C310.6 149.2 312.6 151.1 314.3 153.3C317.2 157.1 319.3 161.5 320.3 166.2C321.2 170.1 321.7 174 321.6 178C321.6 180.1 321.4 182.2 321.1 184.2L321 184.5C320.6 186.4 325.4 187.9 325.7 186.2C326.7 180.8 326.7 175.3 325.7 169.9C324 158.9 317.4 149.2 307.7 143.7C298.6 138.5 287.5 139 277.5 141C267.1 143.3 257 146.7 247.4 151.3C241.9 153.7 236.6 156.5 231.4 159.5L231.2 159.6C230.7 159.8 230.5 160.4 230.7 160.9C230.8 161 230.9 161.2 231 161.3L252.3 182.6L255.3 185.6C256.2 186.5 257.4 186.9 258.6 186.8C259.6 186.6 260 185.8 259.2 185L259.1 184.9Z" fill="#000005"/>
<path d="M327.6 105.8C327.6 105.8 333 116.1 341.2 117.8C349.4 119.5 365.7 120.3 365.5 128.7C365.3 137.1 353.8 137.4 347.3 134.5C347.3 134.5 344.1 156.1 330.2 158.9C316.3 161.7 311.3 156.8 308.4 165.3C308.4 165.3 289.9 166.4 292.1 149.7C292.5 147.1 293.3 124.4 314.9 118.9C314.9 118.9 327 116.5 327.6 105.8Z" fill="white"/>
<path d="M325.5 107C327.2 110.1 329.3 112.8 331.9 115.2C333.9 117.1 336.3 118.6 339 119.4C341.3 120 343.6 120.4 346 120.7C350.7 121.5 355.8 122.1 359.9 124.4C360.6 124.8 361.2 125.3 361.8 125.8C362.4 126.3 362.8 127 363 127.8C363.1 128.1 363.2 128.5 363.1 128.8C363.1 129.3 363 129.9 362.9 130.4C362.7 131.2 362.3 131.9 361.7 132.5C361.6 132.6 361.1 133 361.4 132.8C361.2 133 360.9 133.1 360.7 133.2L360.4 133.4C359.7 133.7 360.6 133.3 360.2 133.5C359.9 133.6 359.6 133.7 359.4 133.8C358.3 134.1 357.1 134.3 355.9 134.2C353.4 134.2 351 133.7 348.7 132.7C347.3 132.1 345.7 132.8 345.1 134.2C345 134.4 345 134.5 345 134.7L344.9 135.1C344.9 135.2 344.8 135.4 344.8 135.5C344.8 135.6 344.6 136.5 344.7 135.8C344.4 137.1 344.1 138.4 343.7 139.7C342.7 143.3 341.1 146.8 339.1 150C338.1 151.6 336.8 153.1 335.3 154.4C333.9 155.6 332.1 156.5 330.3 157C325.5 158.2 320.6 157.8 315.7 158.1C313.8 158.1 311.9 158.6 310.2 159.6C308.3 160.9 306.9 162.9 306.3 165.1L308.8 163.4C308.5 163.4 308.2 163.4 307.8 163.4H307C307.9 163.4 307.1 163.4 306.9 163.4C306.4 163.4 305.9 163.3 305.5 163.3C305.1 163.3 304.4 163.1 303.9 163L303.1 162.8L302.7 162.7C303.2 162.8 302.7 162.7 302.6 162.7C302 162.5 301.4 162.3 300.8 162C300.5 161.9 300.2 161.8 299.9 161.6L299.5 161.4C299.1 161.2 299.7 161.5 299.3 161.3C296.9 159.9 295.2 157.5 294.7 154.7C294.4 152.4 294.5 150.1 294.9 147.8C295 146.8 295.1 145.9 295.3 144.9L295.4 144.1C295.4 143.9 295.5 143.8 295.5 143.6C295.4 144 295.5 143.6 295.5 143.5C295.6 142.9 295.8 142.2 296 141.5C296.8 138.6 297.9 135.7 299.4 133.1C302.9 126.9 308.9 122.5 315.8 120.9C323.1 119.1 329.7 113.7 330.2 105.8C330.4 103 325.4 103.6 325.3 106.1C325.2 108 324.6 109.9 323.5 111.5C323.1 112.1 322.6 112.7 322.1 113.2C321.8 113.5 321.4 113.8 321.1 114.1L320.6 114.5C320.2 114.8 320.7 114.4 320.3 114.7C319.7 115.1 319 115.5 318.3 115.8C318 115.9 317.7 116.1 317.4 116.2L316.9 116.4C316.1 116.7 315.4 116.9 314.6 117.1C306.7 119 299.8 124 295.5 130.9C292.5 136 290.6 141.7 290 147.6C289.6 150 289.5 152.5 289.7 155C290.1 158.4 291.8 161.5 294.5 163.6C298.3 166.5 303.6 167.7 308.4 167.4C309.5 167.4 310.4 166.7 310.9 165.7C311.1 164.9 311.5 164.2 311.9 163.5C312 163.3 312.1 163.2 312.2 163C312.6 162.5 311.8 163.3 312.3 162.9L312.7 162.6C313 162.4 312.3 162.7 312.9 162.5L313.3 162.3C313.1 162.4 312.7 162.6 313.3 162.3L313.8 162.2C314.4 162 313.2 162.3 313.8 162.2C314.7 162.1 315.6 162 316.4 162C321.6 161.9 327 162.1 332.1 160.5C340.7 157.9 345.6 149.3 348.1 141.2C348.8 138.9 349.4 136.6 349.7 134.3L345.9 136.3C350.9 138.5 357.1 139 362.1 136.8C366.8 134.8 369.6 129 366.8 124.4C364.2 120.1 358 118.7 353.5 117.8C350.9 117.3 348.3 116.9 345.6 116.4C343.2 116 340.8 115.7 338.6 114.4C334.8 112 331.8 108.6 329.7 104.5C328.6 102.4 324.1 104.5 325.5 107Z" fill="#000005"/>
<path d="M288.3 141.1C288.3 141.1 276.9 144 275.1 137.8C273.3 131.6 280.6 133.2 280.6 133.2C280.6 133.2 272.3 120.5 284 118.3C284 118.3 274.5 108.7 282.2 99.7998C289.9 90.8998 305 96.8998 305 96.8998C305 96.8998 304.8 83.1998 316.6 85.0998C328.4 86.9998 325.4 95.1998 325.4 95.1998C325.4 95.1998 332.9 96.2998 333.1 101C333.3 105.7 327.5 107.5 327.5 107.5C327.5 107.5 325.2 121 314.9 118.9L304.7 135.7C306.7 139.7 306.5 144.4 304.2 148.2C300.4 154.6 287.7 149.9 288.3 141.1Z" fill="#000005"/>
<path d="M287.4 138.9C287 139 286.6 139.1 286.1 139.2C285.3 139.3 284 139.5 283.6 139.5C282.4 139.6 281.2 139.5 280.1 139.4C279.7 139.3 279.3 139.2 278.9 139.1C278.8 139.1 278.6 139 278.5 139C278.7 139.1 278.7 139.1 278.5 139C278.4 138.9 277.7 138.4 278.1 138.8C278 138.7 277.3 138.1 277.8 138.5C277.7 138.4 277.6 138.3 277.6 138.1C277.7 138.3 277.7 138.3 277.6 138.1C277.4 137.6 277.3 137.1 277.2 136.6C277.2 136.1 277.5 135.7 277.9 135.6C278.1 135.5 278.1 135.5 277.9 135.6C278 135.6 278.1 135.5 278.2 135.5L278.9 135.4C279.3 135.3 278.6 135.4 279.2 135.4H279.7C280 135.4 280.4 135.5 280.7 135.5C281.3 135.6 280.6 135.5 280.6 135.5C282.6 135.9 283.7 134.1 282.6 132.4C282.5 132.3 282.4 132.1 282.3 131.9L282.2 131.7C282 131.3 282.5 132.2 282.3 131.8C282.1 131.4 282 131.3 281.9 131C281.6 130.4 281.3 129.8 281.1 129.1C281 128.7 280.8 128.4 280.7 128C280.5 127.5 280.8 128.3 280.7 127.8C280.6 127.6 280.6 127.4 280.5 127.1C280.4 126.7 280.4 126.3 280.3 125.9C280.2 125.6 280.2 125.3 280.3 125.1C280.3 124.4 280.5 123.8 280.8 123.2C280.9 122.9 281.1 122.7 281.3 122.5C281.5 122.2 281.8 122 282.1 121.8C283 121.2 284.1 120.8 285.2 120.7C287.2 120.3 286.6 118.1 285.6 117C285.5 116.9 285.2 116.5 285.5 116.9L285.4 116.8L284.9 116.2C284.5 115.7 284.2 115.3 283.9 114.8C283.6 114.3 283.3 113.8 283 113.3C281.4 110.4 281.3 106.9 282.8 103.9C284.6 100.8 287.6 98.5995 291.1 97.8995C292.7 97.5995 294.3 97.3996 295.8 97.4996C296.5 97.4996 297.2 97.5996 298 97.6996L299 97.7996L299.9 97.8995C301.6 98.1995 303.3 98.6996 305 99.2996C306 99.6996 307.5 99.0995 307.5 97.8995C307.5 96.6995 307.6 95.5996 307.9 94.4996C307.9 94.2996 308 94.0996 308 93.7996C307.9 94.1996 308.1 93.4995 308.1 93.3995C308.3 92.8995 308.5 92.2996 308.7 91.7996C309.1 90.7996 309.7 89.8996 310.5 89.1996C310.8 88.7996 311.2 88.5996 311.6 88.2996C312.1 87.9996 312.6 87.7996 313.2 87.6996C314.8 87.3996 316.5 87.3996 318 87.7996C318.9 87.9996 319.7 88.2996 320.5 88.5996C321.1 88.7996 321.6 89.1996 322.1 89.5996C322.3 89.7996 322.5 89.9996 322.7 90.1996C322.3 89.7996 322.8 90.3996 322.9 90.5996C323.3 90.9996 322.8 90.3996 323 90.7996C323.1 91.0996 323.2 91.2996 323.3 91.5996C323.4 91.8996 323.2 91.0996 323.3 91.5996C323.3 91.6996 323.3 91.8996 323.4 91.9996C323.5 92.0996 323.5 92.4996 323.5 92.6996C323.5 92.4996 323.5 92.5995 323.5 92.8995C323.5 93.0995 323.5 93.2996 323.5 93.4996C323.5 93.6996 323.5 93.7996 323.4 93.9996C323.3 94.1996 323.3 94.5996 323.4 94.1996C323.5 93.7996 323.4 94.1996 323.4 94.2996C322.8 95.9996 324.3 97.4996 325.9 97.7996C326.3 97.8996 326 97.7996 325.9 97.7996C325.5 97.6996 326.2 97.8995 326.3 97.8995C327 98.0995 327.6 98.2996 328.3 98.4996C328.3 98.4996 329 98.7996 328.6 98.5996L329.1 98.7996C329.3 98.8996 330.2 99.4996 329.9 99.1996C330.1 99.2996 330.2 99.3996 330.4 99.5996C330.5 99.6996 330.6 99.7996 330.7 99.7996V99.6996C331.1 100.2 331 99.8996 331.1 100.5C331.1 100.3 331.1 101 331.1 101.2C331.1 101.7 330.9 102.1 330.7 102.6C330.3 103.2 329.7 103.7 329.1 104C328.5 104.4 327.9 104.8 327.2 105.1C327 105.2 326.7 105.3 326.5 105.4C326.3 105.5 327 105.2 326.6 105.4C325.9 105.6 325.3 106.2 325.2 106.9C325.2 107.1 325.1 107.2 325.1 107.4C325.1 107.6 324.9 108.2 325.1 107.6C325 107.9 325 108.1 324.9 108.4C324.5 109.8 323.9 111.2 323.2 112.5C321.6 115.3 318.8 117.5 315.2 116.9C314.3 116.6 313.3 117 312.8 117.8L303.5 133C303 133.8 302.3 134.6 302.5 135.6C302.6 136.1 302.8 136.5 303 137C303.3 137.8 303.6 138.7 303.7 139.6C304.1 142.2 303.5 145.5 301.7 147.5C300.6 148.6 299.1 149.1 297.6 148.9C295.7 148.8 294 148 292.6 146.8C292 146.2 291.5 145.6 291.1 144.8C290.7 143.9 290.5 142.8 290.5 141.8C290.5 140.5 289.7 139.3 288.5 139C287.6 138.6 286.5 139.1 286.1 140C286 140.1 286 140.3 286 140.4C285.6 146.4 290.2 151.5 295.8 153C298.4 153.8 301.1 153.5 303.5 152.3C306.5 150.6 308 146.8 308.3 143.5C308.6 140.7 308 137.8 306.8 135.3V137L317 120.2L314.6 121.1C317.2 121.7 319.9 121.4 322.3 120.3C324.2 119.2 325.8 117.6 326.9 115.7C328.3 113.4 329.3 111 329.7 108.3L328.3 109.8C332.6 108.4 336.4 104.4 334.9 99.6996C333.6 95.5996 328.8 93.5996 324.9 93.0996L327.4 96.5996C327.9 95.0996 328 93.3995 327.7 91.8995C327 88.1995 324.1 85.6996 320.7 84.2996C317 82.7996 312.2 82.1996 308.6 84.0996C306 85.5996 304.2 88.0996 303.4 90.9996C302.8 92.7996 302.5 94.5996 302.5 96.4996L305 95.0996C299.9 93.0996 294.4 92.4996 289 93.4996C284.7 94.2996 281 96.7996 278.6 100.5C276.4 104.3 276.1 108.9 277.8 113C278.8 115.7 280.4 118.1 282.4 120.1L282.8 116.4C280.2 116.9 277.7 118.1 276.3 120.4C275.3 122.2 275 124.4 275.4 126.4C275.9 129.3 277 132 278.6 134.4L280.6 131.3C277 130.5 272.2 131.3 272.3 135.9C272.3 138.9 274 141.6 276.7 142.9C279 144 281.6 144.4 284.1 144.2C285.7 144.1 287.4 143.9 289 143.5C292.1 142.6 289.9 138.3 287.4 138.9Z" fill="#000005"/>
<path d="M316.6 121.5C316.6 121.5 315.1 112.2 308.5 114C301.9 115.8 299.1 136.5 310.9 136.1" fill="white"/>
<path d="M318.9 120.599C318.6 118.299 317.6 116.199 316 114.399C313.2 111.399 308.2 111.999 305.2 114.399C302.7 116.399 301.4 119.599 300.7 122.599C299.9 125.799 300.1 129.099 301.2 132.199C302.7 135.999 306.1 137.599 310 137.499C311.2 137.399 312.3 136.799 313 135.799C313.5 134.699 312.3 134.599 311.5 134.599C311.9 134.599 311.2 134.599 311.2 134.599C311 134.599 310.8 134.599 310.6 134.499C310.4 134.499 310.2 134.399 309.9 134.399C309.3 134.299 308.8 133.999 308.4 133.699C307.4 132.999 306.6 132.099 306.1 130.999C305 128.499 304.7 125.699 305.1 122.999C305.3 121.699 305.6 120.299 306 119.099C306.2 118.499 306.4 117.999 306.7 117.499C306.9 117.199 307 116.899 307.2 116.599C307.3 116.499 307.3 116.399 307.4 116.299C307.2 116.599 307.6 116.099 307.6 116.099C307.6 116.099 307.9 115.699 308.1 115.499C308.5 115.099 307.8 115.799 308.1 115.499C308.2 115.399 308.2 115.399 308.3 115.299C308.8 115.199 307.8 115.599 308.2 115.299C308.7 115.099 308.3 115.199 308.2 115.299C307.7 115.499 308.2 115.299 308.3 115.299C307.2 115.699 308.5 115.299 308.2 115.399C309.4 115.299 310.6 115.799 311.4 116.699C312.9 118.299 313.8 120.399 314.1 122.599C314.5 123.999 319.2 122.499 318.9 120.599Z" fill="#000005"/>
<path d="M332.4 137.199C332.6 138.399 332.9 139.599 333.4 140.699C334.4 143.099 336.1 145.099 338.3 146.399C339.9 147.299 341.7 147.699 343.6 147.699C344.4 147.799 345.1 147.099 345.1 146.399C345.1 146.299 345.1 146.199 345.1 146.099C344.9 145.199 344 144.499 343 144.499H342.4H342.2C341.9 144.499 342.3 144.499 342.3 144.499C342 144.399 341.6 144.399 341.2 144.299L340.8 144.199L340.6 144.099C340.4 143.999 341.1 144.299 340.7 144.099C340.3 143.899 340.1 143.899 339.9 143.699C339.7 143.499 339.7 143.599 339.5 143.499C339.9 143.799 339.3 143.399 339.5 143.499C339.1 143.199 339 143.099 338.8 142.999L338.5 142.699C338.8 142.999 338.2 142.399 338.5 142.699C338.2 142.399 338.1 142.299 338 142.099C337.9 141.899 337.7 141.699 337.6 141.499C337.5 141.399 337.5 141.299 337.4 141.199C337.8 141.599 337.5 141.399 337.4 141.199C337.2 140.799 337 140.399 336.8 139.899C336.6 139.499 336.5 139.199 336.4 138.799C336.3 138.599 336.5 139.299 336.4 138.899L336.3 138.699C336.3 138.499 336.2 138.399 336.2 138.199C336.1 137.899 336 137.499 336 137.199C335.7 135.199 332 134.899 332.4 137.199Z" fill="#000005"/>
<path d="M331.9 122.2C332.839 122.2 333.6 121.439 333.6 120.5C333.6 119.561 332.839 118.8 331.9 118.8C330.961 118.8 330.2 119.561 330.2 120.5C330.2 121.439 330.961 122.2 331.9 122.2Z" fill="#000005"/>
<path d="M51.1998 250.2H66.3998C67.3998 250.2 67.9998 249.5 67.4998 248.5C66.8998 247.4 65.7998 246.7 64.4998 246.6H49.3998C48.3998 246.6 47.7998 247.3 48.2998 248.3C48.8998 249.4 49.9998 250.1 51.1998 250.2Z" fill="#000005"/>
<path d="M31.0998 232.9H55.0998C56.1998 232.9 57.6998 232.5 58.1998 231.4C58.6998 230.3 57.6998 229.5 56.6998 229.5H32.6998C31.5998 229.5 30.0998 229.9 29.5998 231C29.0998 232.1 30.0998 232.9 31.0998 232.9Z" fill="#000005"/>
<path d="M51.6998 216.1H76.9998C77.6998 216.1 79.5998 215.9 79.9998 215.1C80.3998 214.3 78.4998 214.3 78.0998 214.3H52.8998C52.1998 214.3 50.2998 214.5 49.8998 215.3C49.4998 216.1 51.3998 216.1 51.6998 216.1Z" fill="#000005"/>
<path d="M267.7 150.999C267.9 160.599 274.4 169.299 282.1 174.399C290.1 179.699 299.7 182.499 309.2 180.599C314.8 179.399 320.1 177.099 324.8 173.699C325.1 173.499 322.9 172.299 322.7 172.199C322.2 171.999 320.8 171.199 320.2 171.599C313 176.599 304.1 179.799 295.2 178.699C287.6 177.799 281.4 173.099 277.1 166.899C274.1 162.899 272.4 157.999 272.2 152.999C272.2 152.399 270.6 151.799 270.1 151.499C270 151.599 267.7 150.599 267.7 150.999Z" fill="#000005"/>
<path d="M249.9 152.6C249.2 160.1 252.9 166.9 257.7 172.4C260.1 175.1 262.7 177.7 265.4 180C268 182.3 271.2 184.2 274.7 184.6C275.9 184.9 277.2 184.1 277.5 182.9C277.6 181.6 276.7 180.5 275.4 180.3C272.5 180 270.3 178.3 268.2 176.4C265.9 174.4 263.8 172.2 261.7 169.9C257.7 165.4 254.2 159.7 254.8 153.4C255.1 150.6 250.2 149.8 249.9 152.6Z" fill="#000005"/>
<path d="M85.8998 108.4C85.8998 108.4 77.8998 99.4998 66.6998 102.3C64.1998 102.9 61.9998 104.3 60.3998 106.3C55.5998 112.4 61.1998 120.4 69.7998 120.4L167.9 120.2C175 120.2 178.1 112.6 172.4 109C165.6 104.8 156.8 108.3 156.8 108.3C156.8 108.3 172.1 89.7998 154 70.7998C135.9 51.7998 109.5 69.9998 112.3 89.7998C112.4 89.8998 83.5998 75.1998 85.8998 108.4Z" fill="white"/>
<path d="M87.7999 106.8C82.4999 101.1 74.5999 98.6997 66.9999 100.4C61.8999 101.6 56.4999 105.8 56.2999 111.5C56.1999 116.3 59.7999 120.1 64.0999 121.7C67.0999 122.8 70.1999 122.5 73.2999 122.5H87.6999L130.2 122.4L163.7 122.3C167.7 122.3 171.6 122.4 174.8 119.5C178.2 116.5 178.9 111.3 175.3 108.2C171.3 104.7 165 104.6 160.1 105.6C158.9 105.8 157.8 106.2 156.7 106.6L158.9 109.1C161.3 106 163 102.5 164.1 98.6997C166.4 90.9997 165.4 82.5997 161.1 75.6997C156.4 67.9997 148.8 61.6998 139.6 60.8998C132 60.3998 124.5 63.0998 119 68.2998C112.8 73.9998 109.1 82.1997 110.2 90.6997L113.9 87.9998C110.6 86.3998 107 85.2997 103.4 84.8997C96.4999 83.9997 89.6999 86.2997 86.1999 92.6997C83.3999 97.6997 83.3999 103.8 83.6999 109.3C83.7999 110.5 85.4999 110.6 86.2999 110.3C87.4999 110 88.2999 108.9 88.2999 107.7C87.9999 103.2 88.0999 98.1997 89.8999 94.1997C90.1999 93.5997 90.4999 92.9998 90.8999 92.4998C91.0999 92.1998 91.2999 91.8998 91.5999 91.5998C91.9999 91.0998 91.1999 91.9998 91.5999 91.4998C91.7999 91.2998 91.8999 91.1998 92.0999 90.9998C92.2999 90.7998 92.5999 90.5997 92.8999 90.3997C92.2999 90.8997 93.0999 90.2997 93.2999 90.1997C93.4999 90.0997 93.8999 89.8997 94.0999 89.6997C93.3999 90.0997 94.3999 89.5998 94.6999 89.4998C94.9999 89.3998 95.2999 89.2997 95.5999 89.1997C95.7999 89.0997 95.9999 89.0998 96.1999 89.0998C96.8999 88.9998 97.4999 88.8998 98.1999 88.7998H98.5999C98.8999 88.7998 97.9999 88.7998 98.5999 88.7998H99.5999C100.3 88.7998 100.9 88.8997 101.6 88.8997C102.3 88.8997 102.8 89.0997 103.4 89.1997L103.8 89.2998C103.3 89.1998 103.8 89.2998 103.9 89.2998C104.2 89.3998 104.6 89.3998 104.9 89.4998C105.9 89.7998 107 90.0997 108 90.3997C109.1 90.7997 110.2 91.2998 111.3 91.7998C112.8 92.5998 115.2 90.6998 115 89.0998C113.3 76.3998 124.4 64.5998 136.7 64.8998C144.7 65.0998 151.4 70.1998 155.8 76.4998C160.3 82.5998 161.9 90.2997 160.1 97.6997C159.4 100.3 158.4 102.8 157 105.2C157.3 104.7 156.9 105.4 156.8 105.6L156.4 106.2C156.2 106.5 156 106.8 155.8 107.1C155.6 107.4 155.4 107.6 155.2 107.9C153.8 109.5 155.7 111.1 157.4 110.4C160.3 109.3 163.5 108.9 166.6 109.4C170 109.9 174.9 112.6 172.8 116.5C172.7 116.7 172.5 116.9 172.4 117.1C172.3 117.2 172.2 117.3 172 117.5C171.8 117.7 171.3 118 171.7 117.7C171 118.2 170.2 118.5 169.3 118.5C169.1 118.5 168.8 118.5 168.6 118.5C167.7 118.5 166.8 118.5 166 118.5H136L95.1999 118.6C87.1999 118.6 79.2999 118.6 71.2999 118.6C69.0999 118.7 66.9999 118.3 65.0999 117.2C61.9999 115.3 59.7999 111.4 61.7999 108C64.0999 104 69.6999 103.5 73.7999 104.3C77.1999 105.1 80.2999 106.7 82.8999 109C83.3999 109.4 83.7999 109.8 84.1999 110.3C84.9999 111.2 86.7999 110.4 87.4999 109.8C88.3999 109.2 88.5999 108.1 87.9999 107.2C87.8999 106.9 87.7999 106.8 87.7999 106.8Z" fill="#68BA7F"/>
<path d="M409.1 71.2998C409.1 71.2998 346.9 71.7998 340.6 70.3998C334.3 68.9998 326.9 58.1998 333.9 45.4998C340.9 32.7998 351.4 36.4998 351.4 36.4998C351.4 36.4998 350.5 18.6998 372.2 19.6998C393.9 20.6998 393 40.8998 393 40.8998C393 40.8998 409.3 41.5998 407.3 54.6998C407.3 54.6998 414.9 51.8998 418.9 61.5998C422.9 71.2998 409.1 71.2998 409.1 71.2998Z" fill="white"/>
<path d="M408.6 68.8996C404.4 68.8996 400.3 68.8996 396.1 68.9996C387.3 68.9996 378.5 68.9996 369.6 68.9996C365.2 68.9996 360.7 68.8996 356.3 68.7996L350.6 68.6996C350.5 68.6996 349.9 68.6996 350.1 68.6996H349.7H348.4L346.1 68.5996C344.9 68.5996 343.7 68.4996 342.6 68.3996C341.9 68.2996 341.2 68.2996 340.5 68.0996C339.7 67.8996 338.9 67.4996 338.3 66.8996C338.1 66.6996 337.8 66.4996 337.6 66.2996C337.5 66.1996 337.4 66.0996 337.3 65.9996C334.9 63.5996 333.6 60.3996 333.4 57.0996C333 50.7996 336.4 43.5996 341.9 40.1996C343.5 39.1996 345.3 38.5996 347.2 38.4996C347.6 38.4996 348 38.4996 348.4 38.4996C348.5 38.4996 348 38.4996 348.5 38.4996H349.1C349.6 38.5996 350.1 38.6996 350.6 38.6996C351.4 38.8996 350.3 38.5996 350.6 38.6996C351.9 39.0996 353.7 38.4996 353.6 36.8996C353.6 36.2996 353.6 35.6996 353.7 35.0996C353.7 34.7996 353.8 34.4996 353.8 34.1996C353.9 33.4996 353.8 33.8996 353.8 34.1996C353.8 33.9996 353.9 33.8996 353.9 33.6996C354.1 32.8996 354.3 32.0996 354.5 31.3996C354.6 30.9996 354.8 30.5996 355 30.1996C355.2 29.7996 354.8 30.4996 355.1 29.9996C355.2 29.7996 355.3 29.4996 355.5 29.2996C355.7 28.8996 356 28.4996 356.3 28.0996L356.8 27.4996C356.9 27.3996 357.3 26.8996 357.2 26.9996C358.7 25.3996 360.6 24.0996 362.7 23.3996C368.9 21.1996 375.7 21.5996 381.7 24.3996C383.7 25.3996 385.5 26.8996 386.9 28.6996C387.2 29.0996 387.5 29.4996 387.8 29.9996C387.5 29.4996 387.9 30.1996 388 30.2996C388.2 30.5996 388.3 30.8996 388.5 31.1996C389 32.0996 389.3 32.9996 389.7 33.9996C389.5 33.3996 389.8 34.1996 389.8 34.3996C389.8 34.5996 389.9 34.7996 390 35.0996C390.1 35.5996 390.2 36.0996 390.3 36.5996C390.5 37.3996 390.6 38.1996 390.7 38.9996C390.8 39.5996 390.7 38.4996 390.7 38.9996V39.3996C390.7 39.5996 390.7 39.8996 390.7 40.0996C390.7 40.2996 390.7 40.4996 390.7 40.6996C390.7 41.9996 391.6 43.1996 392.9 43.3996C393.7 43.3996 394.4 43.4996 395.2 43.6996C396 43.7996 396.8 43.9996 397.6 44.1996C398 44.2996 397.3 44.0996 397.9 44.2996C398.1 44.3996 398.3 44.3996 398.5 44.4996C399 44.6996 399.4 44.7996 399.9 45.0996C400.4 45.3996 400.8 45.4996 401.2 45.6996C400.7 45.3996 401.4 45.8996 401.5 45.8996C401.6 45.8996 402 46.1996 402.2 46.3996L402.8 46.8996C402.9 46.9996 403.3 47.3996 402.9 46.9996C403.3 47.3996 403.7 47.6996 404.1 48.1996C404.5 48.6996 403.9 47.8996 404.2 48.3996C404.3 48.6996 404.5 48.8996 404.6 49.1996C404.6 49.2996 405 50.0996 404.8 49.6996C404.9 49.9996 405 50.2996 405 50.5996C405.2 51.8996 405.2 53.0996 405 54.3996C404.9 55.8996 406.1 57.0996 407.5 57.0996C407.8 57.0996 408.1 57.0996 408.4 56.9996L408.6 56.8996C409 56.7996 408.2 56.9996 408.4 56.8996C408.6 56.8996 408.7 56.8996 408.9 56.7996C409.2 56.6996 409.6 56.6996 409.9 56.6996H410.2C410.5 56.6996 409.8 56.6996 410.1 56.6996C410.4 56.6996 410.6 56.6996 410.9 56.7996C411.8 56.8996 412.7 57.2996 413.4 57.7996C414.5 58.5996 415.4 59.6996 416 60.8996C416.4 61.5996 416.7 62.2996 417 62.9996C417.1 63.2996 417.2 63.6996 417.2 63.9996C417.2 64.1996 417.2 64.2996 417.3 64.4996C417.3 64.1996 417.3 64.4996 417.3 64.6996C417.3 64.8996 417.2 65.4996 417.3 64.9996C417.2 65.2996 417.2 65.4996 417.1 65.6996C417.1 65.7996 416.9 66.0996 417.1 65.6996C417 65.7996 417 65.8996 416.9 65.9996C416.8 66.1996 416.6 66.3996 416.5 66.5996C416.8 66.1996 416.4 66.6996 416.3 66.7996C416.1 66.9996 415.9 67.0996 415.7 67.1996C415.6 67.2996 415.5 67.2996 415.4 67.3996C415.8 67.1996 415.5 67.3996 415.4 67.3996C415.2 67.4996 415 67.5996 414.7 67.6996C414.2 67.8996 413.8 68.0996 413.3 68.1996C413.1 68.2996 412.9 68.2996 412.7 68.3996C413.1 68.2996 412.5 68.4996 412.7 68.3996L412.3 68.4996C411.1 68.7996 409.8 68.8996 408.6 68.8996C407.2 68.9996 406.5 70.4996 406.8 71.5996C407.1 72.8996 408.3 73.7996 409.6 73.6996C413.4 73.6996 418.1 72.5996 420.5 69.4996C422.7 66.7996 422.1 63.0996 420.7 60.1996C419 56.4996 416.2 53.3996 412.2 52.2996C410.2 51.6996 408.1 51.7996 406.1 52.4996L409.5 55.0996C410.3 50.3996 408.5 45.5996 404.7 42.6996C401.9 40.5996 398.6 39.2996 395.2 38.7996C394.5 38.6996 393.7 38.5996 393 38.4996L395.2 41.1996C395.5 33.5996 391.7 25.2996 385.2 21.1996C378.9 17.1996 370.5 16.2996 363.3 17.9996C358 19.2996 353.3 22.3996 350.9 27.3996C349.5 30.0996 348.8 33.0996 348.9 36.0996L351.9 34.2996C349.1 33.3996 346.1 33.3996 343.3 34.1996C336.8 35.8996 332.4 41.6996 330.1 47.6996C327.5 54.2996 328.5 61.8996 332.7 67.5996C335 70.6996 338.4 72.5996 342.2 72.9996C349.4 73.6996 356.8 73.5996 364 73.6996C373.5 73.7996 383.1 73.7996 392.6 73.7996C396.3 73.7996 400 73.7996 403.6 73.7996C405.4 73.7996 407.3 73.8996 409.1 73.7996H409.4C410.6 73.5996 411.4 72.5996 411.2 71.3996C411.2 71.2996 411.2 71.1996 411.2 71.1996C411 69.8996 409.9 68.8996 408.6 68.8996Z" fill="#68BA7F"/>
<path d="M361.9 41.0992C359.8 36.4992 354.5 33.7992 349.6 33.6992C346.6 33.6992 343.6 34.3992 340.9 35.5992C339.7 35.9992 339.1 37.2992 339.5 38.4992V38.5992C340.1 39.7992 341.5 40.1992 342.7 39.6992C343.3 39.4992 343.9 39.1992 344.5 38.9992L345.3 38.7992C345.4 38.7992 346.2 38.5992 345.8 38.6992C346.8 38.4992 347.8 38.2992 348.8 38.2992C349 38.2992 349.4 38.2992 349 38.2992H349.7C350.1 38.2992 350.5 38.3992 350.9 38.3992L351.4 38.4992C351.8 38.5992 351 38.3992 351.5 38.4992C351.9 38.5992 352.2 38.6992 352.5 38.7992L353.4 39.1992C353.5 39.2992 353 38.9992 353.4 39.1992L353.8 39.4992C354.3 39.7992 354.7 40.1992 355.2 40.4992C354.6 40.0992 355.2 40.5992 355.4 40.6992C355.6 40.7992 355.8 41.0992 355.9 41.2992C356 41.4992 356.4 41.8992 356.7 42.2992L356.8 42.4992C357 42.6992 356.5 41.8992 356.7 42.2992C356.8 42.3992 356.8 42.4992 356.9 42.6992C357 42.7992 357 42.8992 357.1 42.9992C358.4 45.4992 363.1 43.7992 361.9 41.0992Z" fill="#68BA7F"/>
</svg>
