<svg width="500" height="500" viewBox="0 0 500 500" fill="none" xmlns="http://www.w3.org/2000/svg">
<path d="M464 404C464 404 436.3 310.1 401.9 267.4C367.5 224.7 319 216.5 303.7 226.9C288.4 237.3 296.2 255.5 316.1 259.3C336 263.1 357.2 281.7 357.2 281.7C357.2 281.7 343.6 282.9 332.5 302.9C321.4 322.9 318.4 360.6 343.8 360.2C343.8 360.2 345.8 378 362.8 386.9C379.8 395.8 385.4 390.4 385.4 390.4L391.2 436.9" fill="white"/>
<path d="M466.3 403.1C465.1 399.2 463.9 395.2 462.6 391.3C459.4 381.4 456 371.6 452.3 361.8C447.5 348.9 442.4 336.2 436.8 323.7C431.1 310.7 424.6 298 417.4 285.7C409.8 273 401 261.2 390 251.1C378.8 240.7 365.7 232.5 351.4 226.9C340.8 222.8 329.2 220.1 317.9 220.9C313.6 221.1 309.4 222 305.5 223.7C300.4 226.1 295.6 230.4 293.9 235.9C292.2 241.4 293.9 247.4 297.7 251.8C299.9 254.3 302.6 256.3 305.5 257.8C309 259.4 312.7 260.6 316.5 261.3C324.3 263.1 331.6 266.8 338.4 270.9C341.4 272.7 344.4 274.7 347.3 276.8C348.4 277.6 349.5 278.4 350.6 279.3C351.5 280 352.1 280.5 352.9 281.1C353.7 281.7 354.3 282.3 355 282.9L357.2 279.8C353.2 280.2 349.2 282.3 345.9 284.5C337.9 289.9 332 298 328.1 306.7C324.8 313.9 322.8 321.7 322 329.6C321.3 336.7 321.6 344.5 324.7 351C326.2 354.2 328.5 357 331.5 359C335 361.1 339 362.2 343 362L341.2 360.6C342.1 367.2 344.9 373.5 349.1 378.7C353.2 383.7 358.5 387.7 364.5 390.2C369.5 392.4 375 394.3 380.5 393.8C382.7 393.6 385.3 393 387 391.4L382.9 390.8L384.9 406.5L388 431.6L388.7 437.4C388.8 438.6 390 439 391.1 438.8C392 438.7 393.7 437.8 393.6 436.6L391.6 420.9L388.5 395.8L387.8 390C387.6 388 384.8 388.4 383.7 389.4C383.4 389.7 383.7 389.1 384 389.2C383.8 389.3 383.5 389.4 383.3 389.6L382.7 389.8C382.2 390 383.3 389.7 382.5 389.9C382.1 390 381.8 390 381.5 390.1H381C380.4 390.2 381.5 390.1 380.9 390.1C380.5 390.1 380.1 390.1 379.7 390.1C378.8 390.1 377.8 390 376.9 389.8C374.1 389.3 371.4 388.4 368.8 387.2C363.2 385 358.2 381.4 354.2 376.9C351.4 373.6 349.3 369.8 347.8 365.7C347.3 364.2 346.8 362.7 346.5 361.2L346.4 360.4C346.4 360.3 346.4 360.2 346.4 360.1C346.3 359.7 346.4 360.5 346.4 360.2L346.3 359.7C346.2 358.8 345.4 358.2 344.5 358.3C338.5 358.4 333.2 355.9 330.2 350.5C327 344.7 326.4 337.8 326.8 331.4C327.7 315.7 334.1 298.6 346.7 288.6C348.1 287.5 349.5 286.5 351.1 285.7L352 285.2C352.1 285.2 352.7 284.9 352.1 285.2L352.6 285C353.2 284.8 353.7 284.5 354.3 284.3C354.8 284.1 355.3 284 355.7 283.8C356.1 283.6 355.1 283.9 355.8 283.8L356.2 283.7C356.5 283.6 356.8 283.6 357.2 283.5C358.2 283.4 360.7 281.6 359.3 280.4C351.2 273.4 342.3 267.4 332.6 262.8C329 261.1 325.3 259.6 321.4 258.5C317.8 257.5 314 257 310.5 255.5C305.2 253.1 300.2 249.1 298.5 243.3C297 237.9 299.3 232.7 303.5 229.3C304.3 228.6 305.2 228 306.1 227.5L306.6 227.2L306.8 227.1L307.1 227L307.8 226.7C308.6 226.4 309.5 226.1 310.4 225.8C310.8 225.7 309.9 225.9 310.6 225.7L311.2 225.6C311.7 225.5 312.2 225.4 312.8 225.3C313.8 225.1 314.9 225 315.9 224.9L316.6 224.8C316.7 224.8 316.9 224.8 317 224.8C317.6 224.8 318.2 224.7 318.8 224.7C321.2 224.7 323.7 224.8 326.1 225C331.7 225.6 337.3 226.7 342.7 228.4C356.2 232.8 368.8 239.7 379.8 248.7C391.3 258.2 401.2 269.5 409.2 282.1C416.5 293.7 423 305.8 428.7 318.3C434.5 330.8 439.8 343.6 444.8 356.5C448.7 366.8 452.5 377.2 456 387.7C457.8 393.1 459.6 398.6 461.2 404.1C461.3 404.3 461.3 404.6 461.4 404.8C462.3 407.1 467 405.4 466.3 403.1Z" fill="#000005"/>
<path d="M376.1 361.6C376.1 361.6 399.5 344.7 406.7 362.2C406.7 362.2 416.7 388.8 385.9 391.7C355.1 394.6 344.5 366.9 343.9 360.2C341.3 332.7 356.8 317.3 356.8 317.3" fill="white"/>
<path d="M378.5 362.5C382 360 385.8 358.1 389.8 356.7C392.7 355.7 396 354.9 399.1 355.4L399.6 355.5C399.5 355.5 399.1 355.4 399.5 355.5C399.5 355.5 399 355.3 399.3 355.4C399.9 355.7 400.4 356.1 400.9 356.6C402.3 357.9 403.4 359.5 404.1 361.2C405 363.5 405.6 365.9 405.7 368.4C406.1 373.1 405.4 378 402.6 381.9C398.4 388 390.6 390.2 383.6 390.9C379.1 391.4 374.6 391.1 370.3 390C368.9 389.6 367.5 389.1 366.2 388.5C364.6 387.7 363.1 386.8 361.7 385.8C356.7 382.1 352.5 377.2 349.7 371.6C347.4 367.5 346.1 362.9 345.8 358.2C345.1 344.4 349 329.2 358.4 318.8C358.6 318.6 358.7 318.5 358.9 318.3C359.1 318.1 356.9 317.1 356.7 317C356.2 316.8 354.7 316.1 354.2 316.6C351.6 319.4 349.4 322.5 347.7 326C343.4 334.2 341.1 343.2 341.1 352.4C340.9 355.7 341.2 359 341.9 362.2C342.5 364.5 343.3 366.7 344.4 368.8C347.2 374.7 351.3 379.9 356.5 384C363.8 389.5 372.6 392.7 381.7 393C389.7 393.3 399.3 392 405.3 386.1C411.3 380.2 411.7 370.6 408.9 363.2C406.2 356 397.9 352.8 390.7 353.7C385 354.4 379.4 357.2 374.7 360.3C374.4 360.5 374.1 360.7 373.7 361C373.3 361.3 375.7 362.2 375.9 362.3C376.6 362.3 377.9 362.9 378.5 362.5Z" fill="#000005"/>
<path d="M303.6 228.301C303.5 233.301 307.5 237.501 311.9 239.301C316.3 241.201 321.3 241.401 325.8 239.801C329.1 238.501 332 236.201 334 233.301C335.2 231.701 336.2 229.901 336.9 228.001C337.5 226.101 333.9 225.601 333.3 227.301C332 231.201 329.3 234.401 325.8 236.501C320.4 239.501 311.4 238.001 308.4 232.201C308.1 231.701 307.9 231.101 307.7 230.501C307.6 230.301 307.6 230.101 307.5 229.801L307.4 229.601C307.3 229.201 307.4 229.801 307.4 229.501C307.3 229.101 307.3 228.601 307.3 228.201C307.4 226.401 303.7 226.501 303.6 228.301Z" fill="#000005"/>
<path d="M250.6 341.9C250.6 341.9 282.5 307.6 268.5 263.1C254.5 218.6 277.1 207.7 277.9 186.6C278.7 165.5 256.8 139.8 225.6 190.5L197.9 218.1C197.9 218.1 95.1003 66.1 61.6003 67.7C28.1003 69.3 45.2003 109.1 62.4003 144.2C62.4003 144.2 19.5003 159 45.2003 198.8C45.2003 198.8 23.3003 216 47.5003 265.9C71.7003 315.8 135.3 365.5 135.3 365.5" fill="white"/>
<path d="M252.8 342.8C256.3 338.9 259.3 334.7 261.9 330.1C268 320 272 308.8 273.7 297.1C274.7 289.8 274.6 282.4 273.5 275.1C272.2 266.8 269.1 259 267.5 250.8C265.3 239.1 265.9 227.3 270.1 216.1C273 208.3 277.6 201 279.4 192.7C281 185.4 279.9 177.7 276.3 171.1C272.7 164.3 265.6 160 257.9 159.9C247.2 159.9 238.4 168.9 232.2 176.5C229.5 179.9 226.9 183.5 224.5 187.2C223.9 188.3 223.1 189.4 222.2 190.3L214.8 197.8L196.6 215.9L195.4 217.1L199.8 218.3C198.3 216.1 196.7 213.8 195.2 211.6C191.1 205.7 187 199.9 182.8 194C176.9 185.7 170.8 177.4 164.7 169.2C157.6 159.7 150.3 150.3 143 141C135.5 131.5 127.8 122.2 119.8 113C112.6 104.8 105.2 96.6999 97.3001 89.0999C91.0001 82.9999 84.3001 77.0999 76.9001 72.3999C71.3001 68.7999 64.9001 65.8999 58.0001 66.4999C52.4001 66.9999 46.7001 68.6999 43.1001 73.2999C39.9001 77.4999 39.3001 83.0999 39.6001 88.1999C40.1001 95.1999 42.0001 102.1 44.3001 108.7C47.1001 116.6 50.4001 124.4 54.0001 132C55.8001 135.9 57.7001 139.7 59.5001 143.5L59.9001 142.9C49.7001 146.4 39.6001 154.4 35.7001 164.6C31.8001 174.8 35.1001 185.8 40.3001 194.9C40.7001 195.7 41.2001 196.5 41.7001 197.3C41.6001 197.2 42.2001 198.2 42.3001 197.7C42.3001 197.8 42.1001 197.8 42.1001 197.9C41.8001 198.3 41.5001 198.6 41.1001 198.9C39.8001 200.3 38.7001 201.8 37.8001 203.5C34.1001 209.9 32.9001 217.6 33.1001 224.9C34.0001 239.1 39.0001 252.9 45.0001 265.4C51.0001 277.9 58.9001 289.4 67.5001 300.3C76.0001 311 85.1001 321.3 94.8001 330.9C106.8 343 119.4 354.5 132.7 365.1C132.9 365.3 133.1 365.4 133.3 365.6C134.3 366.3 135.5 366.7 136.7 366.7C137.6 366.6 137.8 366.2 137.1 365.5C131.3 361 125.8 356.1 120.3 351.3C107.6 340.1 95.6001 328.1 84.3001 315.5C71.5001 301.1 59.5001 285.7 50.8001 268.5C45.8001 259 42.1001 248.8 39.8001 238.3C38.3001 231.3 38.0001 224.1 39.1001 217C39.8001 212.6 41.2001 208.4 43.4001 204.6C44.5001 202.9 45.7001 201.4 47.1001 199.9C47.2001 199.8 47.2001 199.8 47.3001 199.7C47.5001 199.6 47.5001 199.4 47.4001 199.3C40.6001 188.8 36.1001 175.7 42.0001 163.8C45.6001 156.5 52.3001 151.1 59.4001 147.4C60.6001 146.8 61.8001 146.2 63.0001 145.7L63.6001 145.5C63.9001 145.4 63.4001 145.6 63.6001 145.5L63.8001 145.4L64.2001 145.3C64.4001 145.2 64.8001 145.1 64.6001 144.7C57.5001 130.2 50.1001 115.3 46.3001 99.4999C43.9001 89.5999 42.6001 75.7999 53.7001 70.6999C56.5001 69.4999 59.6001 68.7999 62.7001 68.6999H63.6001C63.7001 68.6999 64.2001 68.6999 63.8001 68.6999H64.0001L64.8001 68.7999C65.3001 68.8999 64.4001 68.6999 64.8001 68.7999L65.3001 68.8999L66.2001 69.0999C65.4001 68.8999 66.4001 69.1999 66.6001 69.1999L67.4001 69.4999C67.7001 69.5999 66.8001 69.2999 67.4001 69.4999L67.9001 69.6999C68.2001 69.7999 68.5001 69.8999 68.8001 70.0999C69.1001 70.2999 70.0001 70.6999 69.5001 70.3999C70.2001 70.7999 70.9001 71.0999 71.6001 71.4999C74.7001 73.2999 77.6001 75.2999 80.4001 77.4999C83.8001 80.1999 87.1001 82.9999 90.2001 85.8999C97.9001 93.0999 105.2 100.8 112.2 108.6C120.1 117.4 127.6 126.5 135 135.7C142.4 144.9 149.6 154.1 156.6 163.5C162.9 171.9 169.1 180.3 175.2 188.8C179.7 195.1 184.2 201.4 188.7 207.8C190.9 210.9 192.9 214.1 195.2 217.2C195.3 217.3 195.4 217.5 195.5 217.6C196 218.4 199.1 219.6 199.9 218.8L213.8 205L223.4 195.4C224.8 194 226.4 192.7 227.7 191.2C229 189.5 230.2 187.7 231.3 185.8C232.6 183.9 233.9 182.1 235.2 180.3C237.4 177.3 239.9 174.5 242.5 171.9C246.1 168.3 250.3 165 255 163.1C256.7 162.4 258.5 162 260.4 161.9C261.1 161.9 261.8 161.9 262.5 162C263.1 162.1 262 161.9 262.7 162L263.3 162.1C263.9 162.2 262.8 161.9 263.4 162.1L264.1 162.3C263.5 162.1 264.6 162.5 264.7 162.6C265.3 162.9 264.3 162.4 264.8 162.7L265.3 163C265.9 163.3 266.4 163.7 266.9 164.1C268.1 165.1 269.2 166.2 270.1 167.5C274.2 173.1 275.9 180.6 275.2 187.5C274.4 195.6 270.2 202.9 267 210.2C262.7 219.7 260.9 230.1 261.6 240.6C262.1 248.4 264.1 255.8 266.3 263.2C268.6 270.7 269.7 278.5 269.5 286.3C269.1 298.8 266 311 260.3 322.2C257.2 328.5 253.4 334.5 248.9 339.8C248.7 340.1 248.5 340.3 248.2 340.6C247.5 341.8 251.9 343.8 252.8 342.8Z" fill="#000005"/>
<path d="M95.2002 63H213.8C221.5 63 227.8 69.3 227.8 77V332C227.8 339.7 221.5 346 213.8 346H95.2002C87.5002 346 81.2002 339.7 81.2002 332V77C81.2002 69.3 87.4002 63 95.2002 63Z" fill="#000005"/>
<path d="M213.7 344H106.4C102.7 344 99.1003 344 95.4003 344C88.5003 344 83.7003 338.6 83.6003 331.8V81.1C83.6003 79.4 83.5003 77.7 83.7003 76C84.3003 70 89.2003 65.3 95.3003 64.9C96.1003 64.9 96.9003 64.9 97.6003 64.9H213.6C217.8 64.8 221.6 67 223.7 70.6C225.3 73.4 225.3 76.4 225.3 79.5V331C225.3 331.6 225.3 332.2 225.3 332.9C224.9 338.8 219.8 344 213.7 344C212.6 344.1 211.3 344.5 211.4 345.9C211.6 347.1 212.7 348 213.9 348C220.9 347.9 227.3 343.9 229.5 337.1C230 335.3 230.3 333.4 230.3 331.6V79.6C230.3 75.4 229.8 71.4 227.2 67.8C224 63.6 219 61 213.6 61C212.5 61 211.4 61 210.3 61H97.2003C96.2003 61 95.1003 61 94.1003 61C87.2003 61.3 81.2003 65.9 79.3003 72.6C78.8003 75.1 78.6003 77.7 78.7003 80.2V325.5C78.7003 327.5 78.7003 329.6 78.7003 331.6C78.9003 340.7 86.3003 348 95.4003 348C99.0003 348 102.6 348 106.2 348H213.9C215 348 216.3 347.5 216.3 346.2C216.1 345 215 344 213.7 344Z" fill="#000005"/>
<path d="M215.8 94.0996H91.3003V298.9H215.8V94.0996Z" fill="white"/>
<path d="M216.9 297.9H97.5003C95.9003 297.8 94.3003 297.8 92.6003 297.9H92.4003L93.8003 298.5V102C93.8003 99.3996 94.0003 96.6996 93.8003 93.9996C93.8003 93.8996 93.8003 93.7996 93.8003 93.6996L90.2003 95.0996H209.6C211.2 95.1996 212.8 95.1996 214.5 95.0996H214.7L213.3 94.4996V291C213.3 293.6 213.1 296.4 213.3 299C213.3 299.1 213.3 299.2 213.3 299.3C213.3 300.5 218.2 300 218.2 298.5V102C218.2 99.3996 218.4 96.6996 218.2 93.9996C218.2 93.8996 218.2 93.7996 218.2 93.6996C218.2 93.1996 217.1 93.0996 216.8 93.0996H92.4003C91.6003 93.0996 88.8003 93.1996 88.8003 94.4996V291C88.8003 293.6 88.6003 296.4 88.8003 299C88.8003 299.1 88.8003 299.2 88.8003 299.3C88.8003 299.8 89.9003 299.9 90.2003 299.9H214.7C215.7 299.9 217.3 299.8 218 299C218.7 298.2 217.6 297.9 216.9 297.9Z" fill="#000005"/>
<path d="M153.4 331.5C158.591 331.5 162.8 327.292 162.8 322.1C162.8 316.909 158.591 312.7 153.4 312.7C148.209 312.7 144 316.909 144 322.1C144 327.292 148.209 331.5 153.4 331.5Z" fill="#000005"/>
<path d="M161.2 320.6C161.1 325.6 156.9 329.5 152 329.4C151.6 329.4 151.1 329.3 150.7 329.3C149.9 329.2 149.1 328.9 148.4 328.5C148.1 328.3 147.8 328.2 147.5 328C146.9 327.6 147.6 328.1 147.2 327.8C147.1 327.8 146.6 327.2 146.8 327.5C146.7 327.4 146.6 327.3 146.5 327.1C146.8 327.5 146.4 326.9 146.3 326.8C146.5 327.1 146.3 326.8 146.3 326.7C145.9 326 146.4 327.1 146.1 326.4C145.8 325.7 145.7 325 145.6 324.3C145.5 322.6 145.9 320.9 146.7 319.4C148.5 316.4 151.8 314.6 155.3 314.9C157 315 158.7 315.7 159.9 316.9C159.6 316.6 160.2 317.2 160.1 317.2C159.8 316.8 160.2 317.4 160.3 317.5C160 317.1 160.4 317.7 160.4 317.8C160.2 317.5 160.5 318.2 160.5 318.2C161.1 318.9 161.2 319.7 161.2 320.6C161.4 321.8 162 322.8 162.9 323.6C163.3 324 164.5 324.7 164.5 323.6C164.3 318.5 161.3 313.9 156.7 311.6C152.7 309.7 147.9 310.6 144.9 314C138.5 321.5 146.2 334.8 155.8 333.6C160.8 332.9 164.5 328.7 164.5 323.6C164.3 322.4 163.7 321.4 162.8 320.6C162.3 320.2 161.2 319.5 161.2 320.6Z" fill="white"/>
<path d="M165.8 82.4004C167.457 82.4004 168.8 81.0572 168.8 79.4004C168.8 77.7435 167.457 76.4004 165.8 76.4004C164.143 76.4004 162.8 77.7435 162.8 79.4004C162.8 81.0572 164.143 82.4004 165.8 82.4004Z" fill="white"/>
<path d="M132.9 81.6003L148 81.8003H150.2C153.3 81.8003 152.3 77.4003 149.7 77.3003L134.6 77.1003H132.4C129.2 77.0003 130.3 81.5003 132.9 81.6003Z" fill="white"/>
<path d="M57.7001 183.1C57.7001 183.1 100.3 192.3 102.9 171.8C106.1 146.3 71.1001 136.9 52.6001 149.7" fill="white"/>
<path d="M59.1 184.8C63.8 185.8 68.5 186.4 73.3 186.7C81.1 187.2 90 187.3 97.2 183.6C100.4 182.1 102.9 179.5 104.2 176.2C105.6 171.8 105.5 167 103.9 162.6C100.7 153.1 91.4 146.6 82.1 143.9C72.8 141.2 62.3 141.7 53.7 146.3C52.7 146.8 51.7 147.5 50.7 148.1C50 148.6 53.4 152.1 54.6 151.3C62.2 146.1 72.1 144.7 81.1 146.4C85.3 147.1 89.3 148.7 92.9 150.9C94.4 151.9 95.7 153 96.8 154.4C98.1 155.9 99.1 157.6 99.8 159.5C101.5 163.6 101.7 168.2 100.6 172.4C99.6 175.6 97.4 178.3 94.4 179.9C87.9 183.6 79.4 183.8 72.2 183.4C67 183.1 61.8 182.4 56.7 181.5H56.4C55.3 181.3 56.1 182.6 56.4 182.9C57.1 183.8 58 184.5 59.1 184.8Z" fill="#000005"/>
<path d="M55.2001 226.2C55.2001 226.2 86.0001 241.6 102.4 223.6C118.8 205.6 75.5001 181.6 45.1001 198.8" fill="white"/>
<path d="M53.9 227.8C59.3 230.4 65.1 232.3 71 233.4C81.1 235.4 92.6 234.8 101 228.2C104.5 225.4 107.6 221.9 108.3 217.3C108.7 213.7 107.8 210 105.7 207.1C100.4 199.2 90.7 194.7 81.8 192.6C70.6 189.9 58.3 190.3 47.6 195C46.1 195.7 44.7 196.4 43.4 197.1C42.3 197.7 42.6 199.2 43.4 199.9C44.3 200.8 45.7 201 46.9 200.4C56.2 195.2 67.2 193.9 77.6 195.6C79.9 196 82.2 196.5 84.5 197.3C86.6 198 88.7 198.8 90.7 199.7C94.3 201.4 97.6 203.7 100.3 206.6L100.7 207.1C100.4 206.8 100.9 207.3 100.9 207.3C101.2 207.7 101.4 208 101.7 208.4C102 208.8 102.1 209 102.3 209.3C102.5 209.6 102.5 209.7 102.6 209.8C102.7 209.9 103 210.6 102.8 210.2C103.1 210.9 103.4 211.7 103.6 212.4C103.8 213 103.9 213.7 103.9 214.3C104 215.7 103.7 217.2 103.1 218.5C102.3 220.1 101.3 221.6 100 222.9C93.1 229.9 83 231 73.8 229.6C69.6 229 65.5 227.9 61.5 226.4C60.2 225.9 58.9 225.4 57.6 224.9L56.6 224.4C56.2 224.2 57.3 224.8 56.8 224.5C55.8 224 54.3 223.7 53.5 224.8C52.6 225.9 52.9 227.1 53.9 227.8C53.9 227.7 54 227.8 54 227.8H53.9Z" fill="#000005"/>
<path d="M72.6001 192.9C67.9001 199.3 69.5001 208.9 74.8001 214.5C80.5001 220.5 90.3001 221.1 97.6001 217.9C100.6 216.6 104.1 214.1 104.3 210.6C104.3 209.4 103.4 208.4 102.2 208.3C101.4 208.1 99.4001 208.3 99.4001 209.5C99.3001 211.7 97.5001 213.3 95.6001 214.2C93.0001 215.5 90.0001 216.2 87.1001 216C84.2001 216 81.5001 215 79.3001 213.1C76.2001 210 74.6001 205.8 75.0001 201.5C75.2001 199.1 75.9001 196.8 77.3001 194.9C78.6001 192.8 73.9001 191 72.6001 192.9Z" fill="#000005"/>
<path d="M69.3003 146.1C66.8003 150.7 65.7003 156.7 67.6003 161.8C69.4003 166.6 73.9003 169.7 78.5003 171.4C83.5003 173.3 89.2003 173.4 94.0003 170.8C98.3003 168.4 101.5 164.1 101.6 159.1C101.6 156.7 96.9003 158.1 96.8003 160.3C96.7003 163.4 95.1003 166.2 92.5003 167.9C91.9003 168.2 91.4003 168.5 90.8003 168.7C89.9003 169 88.9003 169.2 87.9003 169.2C85.6003 169.3 83.2003 168.9 81.1003 168C77.2003 166.4 73.6003 163.9 72.1003 159.9C71.2003 157.2 71.1003 154.2 71.8003 151.5C72.1003 150.3 72.5003 149.2 72.9003 148C73.0003 147.8 73.1003 147.6 73.2003 147.4C73.3003 147.2 73.3003 147.3 73.3003 147.2C73.4003 146.9 73.1003 147.6 73.2003 147.4C73.3003 147.3 73.3003 147.2 73.4003 147C75.0003 144.2 70.4003 144.3 69.3003 146.1Z" fill="#000005"/>
<path d="M102 115.8H107.8C108.9 115.8 109.8 114.9 109.7 113.7C109.7 113.6 109.7 113.5 109.7 113.4C109.5 112.1 108.5 111.1 107.1 111H101.3C100.2 111 99.3002 111.9 99.4002 113.1C99.4002 113.2 99.4002 113.3 99.4002 113.4C99.6002 114.7 100.7 115.7 102 115.8Z" fill="#68BA7F"/>
<path d="M103.3 122H109.1C109.4 122 109.7 122 109.6 121.7C109.5 121.4 109.1 120.9 108.8 120.7C108.3 120.3 107.8 119.9 107.2 119.6C106.8 119.3 106.3 119.2 105.8 119.1H100C99.7 119.1 99.5 119.1 99.5 119.4C99.5 119.7 100 120.2 100.3 120.4C100.8 120.8 101.3 121.2 101.9 121.5C102.3 121.8 102.8 121.9 103.3 122Z" fill="#68BA7F"/>
<path d="M141.9 150.8C142.6 146.3 145.2 141.2 149.7 139.6C152 138.7 154.6 139 156.6 140.4C158.3 141.8 159.6 143.8 160.2 146C160.8 147.9 165.3 148.9 164.4 146.1C162.3 139.5 155.6 134.2 148.5 135.5C142.2 136.7 138.4 143 137.4 148.9C137.1 150.9 141.5 153.1 141.9 150.8Z" fill="#000005"/>
<path d="M137.2 184.5C137.2 184.5 130.3 150 131 149.5C131.7 149 166.7 142.7 169.1 143.6C171.5 144.5 175.2 178.4 174.2 180.3C173.2 182.2 137.5 186 137.2 184.5Z" fill="#68BA7F"/>
<path d="M139.6 185.3C138.9 185.3 138.3 185.3 137.6 185.2C137.3 185.2 136.7 185.1 136.6 184.6C129.7 149.8 130.3 149.3 130.6 149.1C131.2 148.6 145.7 146.1 149.2 145.5C157.5 144.1 167.7 142.6 169.1 143.1C169.5 143.2 169.8 143.7 170.1 144.6C172.5 150.8 175.5 178.6 174.4 180.5C173.7 181.7 164.7 183 157.2 183.9C151.1 184.7 143.5 185.3 139.6 185.3ZM137.6 184.2C140.6 185.2 172.2 181.5 173.7 180C174 179.2 173.6 171.6 172.4 161.8C171 150.3 169.6 144.5 168.9 144C166.9 143.3 134.9 148.8 131.5 149.9C131.5 152.4 135.1 171.4 137.6 184.2Z" fill="#68BA7F"/>
<path d="M148.2 179.8L150.8 166.2C150.8 166.2 144.1 161.4 147.4 155.8C150.7 150.2 157.1 152.1 160.2 155.8C163.3 159.5 158.4 166 158.4 166L164 177.9L148.2 179.8Z" fill="#000005"/>
<path d="M147.6 180.3L150.2 166.3C149 165.3 143.8 160.7 147 155.5C148.1 153.4 150.3 151.9 152.7 151.7C155.8 151.6 158.8 153 160.7 155.4C163.7 159 160 164.7 159.1 166L164.9 178.2L147.6 180.3ZM153.2 152.8H152.7C150.6 153 148.8 154.2 147.8 156.1C144.7 161.2 150.8 165.6 151 165.8L151.3 166L148.8 179.2L163.2 177.5L157.8 166L158 165.8C158 165.7 162.6 159.6 159.8 156.2C158.2 154.1 155.8 152.9 153.2 152.8Z" fill="#000005"/>
<path d="M182.1 216H155.6C145.6 216 135.7 216.1 125.7 216C123.1 216 120.8 214.6 119.5 212.4C117.5 209 118.7 204 122.5 202.3C123.8 201.8 125.1 201.7 126.5 201.8H181C185 201.5 188.5 204.6 188.8 208.6C188.9 210.5 188.3 212.5 187 213.9C185.7 215.2 184 216 182.1 216C180.9 216 179.8 216.9 179.6 218.2C179.5 219.5 180.8 220.2 182 220.1C187.4 220 192.1 216.3 193.4 211C194.5 205.9 191.8 200.7 187 198.6C183.6 197.1 179.1 197.7 175.5 197.7H136.4C132.8 197.7 129.2 197.7 125.6 197.7C121.4 197.7 117.6 199.8 115.4 203.4C112.6 207.9 113.5 213.7 117.3 217.3C120.9 220.7 125.7 220.3 130.2 220.3H182C183.3 220.3 184.4 219.4 184.6 218.1C184.5 216.6 183.2 216 182.1 216Z" fill="#68BA7F"/>
<path d="M129.8 211.8C131.346 211.8 132.6 210.547 132.6 209C132.6 207.454 131.346 206.2 129.8 206.2C128.254 206.2 127 207.454 127 209C127 210.547 128.254 211.8 129.8 211.8Z" fill="#68BA7F"/>
<path d="M141.8 211.9C143.346 211.9 144.6 210.646 144.6 209.1C144.6 207.553 143.346 206.3 141.8 206.3C140.254 206.3 139 207.553 139 209.1C139 210.646 140.254 211.9 141.8 211.9Z" fill="#68BA7F"/>
<path d="M153.7 211.9C155.246 211.9 156.5 210.646 156.5 209.1C156.5 207.553 155.246 206.3 153.7 206.3C152.154 206.3 150.9 207.553 150.9 209.1C150.9 210.646 152.154 211.9 153.7 211.9Z" fill="#68BA7F"/>
<path d="M165.7 211.9C167.247 211.9 168.5 210.646 168.5 209.1C168.5 207.553 167.247 206.3 165.7 206.3C164.154 206.3 162.9 207.553 162.9 209.1C162.9 210.646 164.154 211.9 165.7 211.9Z" fill="#68BA7F"/>
<path d="M177.6 211.9C179.147 211.9 180.4 210.646 180.4 209.1C180.4 207.553 179.147 206.3 177.6 206.3C176.054 206.3 174.8 207.553 174.8 209.1C174.8 210.646 176.054 211.9 177.6 211.9Z" fill="#68BA7F"/>
<path d="M115.8 150.6C116.5 150.8 117.1 151 117.7 151.3L117.5 151.2C118.5 151.6 119.4 152.1 120.3 152.6C120.7 152.8 121.1 152.8 121.5 152.8C122.1 152.9 122.8 152.9 123.4 152.8C123.9 152.8 124.4 152.7 124.9 152.5C125 152.4 125.4 152.3 125.1 152.1C123.5 151.2 121.8 150.4 120.1 149.9C119.6 149.8 119.1 149.7 118.6 149.7C118 149.7 117.3 149.7 116.7 149.8L116.2 149.9C116 149.9 115.8 150 115.6 150.1C115.3 150.5 115.6 150.6 115.8 150.6Z" fill="#68BA7F"/>
<path d="M118.5 140.6L125.9 148C126.4 148.4 126.9 148.8 127.5 149C128 149.2 128.5 149.3 129.1 149.3C130.2 149 129.6 148 129.1 147.5L121.7 140.1C121.2 139.7 120.7 139.3 120.1 139.1C119.6 138.9 119.1 138.8 118.5 138.8C117.4 139.1 118 140.1 118.5 140.6Z" fill="#68BA7F"/>
<path d="M182.8 243.8H156.3C146.3 243.8 136.4 243.8 126.4 243.8C123.9 243.9 121.6 242.7 120.3 240.6C118.4 237 119.8 232.6 123.4 230.7C123.5 230.7 123.5 230.6 123.6 230.6C124.9 230.1 126.3 229.8 127.7 229.9H182.2C183.9 229.8 185.5 230.2 187 231C190.3 233.4 190.5 238.3 188 241.2C186.7 242.8 184.8 243.7 182.8 243.8C179.6 243.9 180.3 248.3 183.2 248.2C188.5 248.1 193.3 244.7 194.4 239.3C195.3 234 192.6 228.8 187.7 226.6C184.2 225 179.9 225.5 176.1 225.5H137C133.4 225.5 129.8 225.5 126.2 225.5C120 225.3 114.9 230.1 114.6 236.2C114.5 239.6 115.9 242.8 118.4 245.1C120.7 247.2 123.8 248.4 126.9 248.3H183.1C186.4 248.2 185.6 243.8 182.8 243.8Z" fill="#68BA7F"/>
<path d="M130.8 239.8C132.346 239.8 133.6 238.547 133.6 237C133.6 235.454 132.346 234.2 130.8 234.2C129.254 234.2 128 235.454 128 237C128 238.547 129.254 239.8 130.8 239.8Z" fill="#68BA7F"/>
<path d="M142.8 239.8C144.346 239.8 145.6 238.547 145.6 237C145.6 235.454 144.346 234.2 142.8 234.2C141.254 234.2 140 235.454 140 237C140 238.547 141.254 239.8 142.8 239.8Z" fill="#68BA7F"/>
<path d="M154.8 239.8C156.346 239.8 157.6 238.547 157.6 237C157.6 235.454 156.346 234.2 154.8 234.2C153.254 234.2 152 235.454 152 237C152 238.547 153.254 239.8 154.8 239.8Z" fill="#68BA7F"/>
<path d="M166.7 239.8C168.247 239.8 169.5 238.547 169.5 237C169.5 235.454 168.247 234.2 166.7 234.2C165.154 234.2 163.9 235.454 163.9 237C163.9 238.547 165.154 239.8 166.7 239.8Z" fill="#68BA7F"/>
<path d="M178.6 239.8C180.147 239.8 181.4 238.547 181.4 237C181.4 235.454 180.147 234.2 178.6 234.2C177.054 234.2 175.8 235.454 175.8 237C175.8 238.547 177.054 239.8 178.6 239.8Z" fill="#68BA7F"/>
<path d="M140.1 257H169.2C174.3 257 178.4 261.1 178.4 266.2C178.4 271.3 174.3 275.4 169.2 275.4H140.1C135 275.4 130.9 271.3 130.9 266.2C130.9 261.1 135 257 140.1 257Z" fill="#68BA7F"/>
<path d="M169.2 275.8H140.1C134.8 275.8 130.4 271.5 130.4 266.1C130.4 260.8 134.7 256.4 140.1 256.4H169.2C174.5 256.4 178.9 260.7 178.9 266.1C178.8 271.5 174.5 275.8 169.2 275.8ZM140.1 257.5C135.3 257.5 131.4 261.4 131.4 266.2C131.4 271 135.3 274.9 140.1 274.9H169.2C174 274.9 177.9 271 177.9 266.2C177.9 261.4 174 257.5 169.2 257.5H140.1Z" fill="#68BA7F"/>
<path d="M190.5 108.7L200.3 118.3L201.7 119.7C202.1 119.9 202.4 120 202.8 120C203.4 120.1 204.1 120.2 204.7 120.2C205.2 120.2 205.7 120.2 206.2 120.2C206.3 120.2 206.7 120.2 206.5 120L196.7 110.4L195.3 109C194.9 108.8 194.6 108.7 194.2 108.7C193.6 108.6 192.9 108.5 192.3 108.5C191.8 108.4 191.3 108.4 190.8 108.5C190.6 108.5 190.3 108.5 190.5 108.7Z" fill="#68BA7F"/>
<path d="M195.1 118.9L204.1 108.9L205.4 107.5C205.9 107 203.7 107.1 203.6 107.1C203 107.2 202.3 107.3 201.7 107.5C201.3 107.6 200.9 107.8 200.6 108L191.7 118L190.4 119.4C189.9 119.9 192.1 119.8 192.2 119.8C192.8 119.7 193.5 119.6 194.1 119.4C194.4 119.3 194.8 119.2 195.1 118.9Z" fill="#68BA7F"/>
<path d="M359 164.3C359 164.3 409.6 167.1 412.1 156.9C414.6 146.7 417.7 94.8998 408.3 93.0998C398.9 91.2998 316.4 89.3998 312 94.4998C307.6 99.5998 304.5 158.8 311.4 161.6C318.3 164.4 335.2 163.9 335.2 163.9C335.2 163.9 328.3 178.8 333.3 178.8C338.3 178.8 359 164.3 359 164.3Z" fill="#68BA7F"/>
<path d="M338.6 130.9L347.8 139.1C348.9 140 350 140.7 351.3 141.3C352.4 141.9 353.6 142.4 354.8 142.9C355.5 143.3 356.4 143.5 357.2 143.6C358 143.6 358.4 142.9 358.9 142.3L360.8 140L376.7 120.8C377 120.4 372.8 118.3 372.5 118.1C371.4 117.6 370.4 117.1 369.2 116.7C368.9 116.6 367.9 116.2 367.7 116.5L358 128.2L353.2 134L350.8 136.9C350.3 137.5 349.3 139.3 348.5 139.2L355.3 142C357.3 143.1 356.1 142.4 355.6 142L354.5 141L352.1 138.9L347.5 134.8C345.9 133.5 344.1 132.5 342.1 131.8C341.2 131.4 340.3 131 339.3 130.8C339.1 130.7 338.1 130.5 338.6 130.9Z" fill="white"/>
</svg>
